<?xml version="1.0" encoding="UTF-8" standalone="no"?>
<!-- Created with Inkscape (http://www.inkscape.org/) -->

<svg
   width="23mm"
   height="23mm"
   viewBox="0 0 23 23"
   version="1.1"
   id="svg1"
   sodipodi:docname="agua.svg"
   inkscape:version="1.3 (0e150ed6c4, 2023-07-21)"
   xmlns:inkscape="http://www.inkscape.org/namespaces/inkscape"
   xmlns:sodipodi="http://sodipodi.sourceforge.net/DTD/sodipodi-0.dtd"
   xmlns="http://www.w3.org/2000/svg"
   xmlns:svg="http://www.w3.org/2000/svg">
  <sodipodi:namedview
     id="namedview1"
     pagecolor="#ffffff"
     bordercolor="#000000"
     borderopacity="0.25"
     inkscape:showpageshadow="2"
     inkscape:pageopacity="0.0"
     inkscape:pagecheckerboard="0"
     inkscape:deskcolor="#d1d1d1"
     inkscape:document-units="mm"
     inkscape:zoom="2.0661644"
     inkscape:cx="27.345355"
     inkscape:cy="138.90473"
     inkscape:window-width="1920"
     inkscape:window-height="974"
     inkscape:window-x="-11"
     inkscape:window-y="-11"
     inkscape:window-maximized="1"
     inkscape:current-layer="layer1" />
  <defs
     id="defs1" />
  <g
     inkscape:label="Camada 1"
     inkscape:groupmode="layer"
     id="layer1"
     transform="translate(-156.9249,-139.99156)">
    <path
       id="path10"
       style="color:#000000;fill:#55bdff;fill-opacity:1;stroke-linejoin:bevel;-inkscape-stroke:none"
       d="m 173.45781,143.15356 -0.92759,0.0817 c -0.0402,0.3975 -0.30194,1.12889 -0.62528,1.92805 -0.32333,0.79915 -0.70036,1.68654 -0.94878,2.53525 -0.24843,0.84871 -0.40036,1.66974 -0.11162,2.39261 0.14437,0.36144 0.42331,0.68101 0.8046,0.87489 0.38128,0.19388 0.84785,0.27471 1.41232,0.26355 1.11097,-0.0219 1.89529,-0.37326 2.24999,-1.0294 0.35471,-0.65615 0.25397,-1.42598 0.031,-2.21692 -0.44582,-1.58188 -1.48427,-3.42835 -1.88464,-4.82968 z m -7.28327,0.0429 -0.92759,0.0822 c -0.10045,0.99329 -0.6812,2.56068 -1.37718,4.28088 -0.69598,1.72019 -1.49997,3.61174 -2.01952,5.38675 -0.51956,1.77501 -0.78676,3.44513 -0.25373,4.77955 0.26652,0.66721 0.7572,1.2348 1.4671,1.59577 0.7099,0.36097 1.62167,0.52867 2.77295,0.50591 2.28456,-0.0452 3.71357,-0.72759 4.35943,-1.92236 0.64587,-1.19477 0.48197,-2.71082 0.0196,-4.35116 -0.92461,-3.28066 -3.15097,-7.24218 -4.0411,-10.35751 z" />
  </g>
</svg>
