<?xml version="1.0" encoding="UTF-8" standalone="no"?>
<!-- Created with Inkscape (http://www.inkscape.org/) -->

<svg
   width="23mm"
   height="23mm"
   viewBox="0 0 23 23"
   version="1.1"
   id="svg1"
   sodipodi:docname="fogo.svg"
   inkscape:version="1.3 (0e150ed6c4, 2023-07-21)"
   xmlns:inkscape="http://www.inkscape.org/namespaces/inkscape"
   xmlns:sodipodi="http://sodipodi.sourceforge.net/DTD/sodipodi-0.dtd"
   xmlns="http://www.w3.org/2000/svg"
   xmlns:svg="http://www.w3.org/2000/svg">
  <sodipodi:namedview
     id="namedview1"
     pagecolor="#ffffff"
     bordercolor="#000000"
     borderopacity="0.25"
     inkscape:showpageshadow="2"
     inkscape:pageopacity="0.0"
     inkscape:pagecheckerboard="0"
     inkscape:deskcolor="#d1d1d1"
     inkscape:document-units="mm"
     inkscape:zoom="2.0661644"
     inkscape:cx="27.345355"
     inkscape:cy="138.90473"
     inkscape:window-width="1920"
     inkscape:window-height="974"
     inkscape:window-x="-11"
     inkscape:window-y="-11"
     inkscape:window-maximized="1"
     inkscape:current-layer="layer1" />
  <defs
     id="defs1" />
  <g
     inkscape:label="Camada 1"
     inkscape:groupmode="layer"
     id="layer1"
     transform="translate(-156.9249,-139.99156)">
    <path
       id="path6-2"
       style="font-variation-settings:normal;vector-effect:none;fill:#ff6b55;fill-opacity:1;stroke:none;stroke-width:1.00528;stroke-linecap:butt;stroke-linejoin:bevel;stroke-miterlimit:4;stroke-dasharray:none;stroke-dashoffset:0;stroke-opacity:1;-inkscape-stroke:none;stop-color:#000000"
       d="m 167.94142,141.58745 c -0.55325,3.42399 -0.79891,7.33684 -2.44521,10.76083 -2.51435,0.33251 -3.60019,-1.02578 -5.1364,-3.30165 0,0 -0.63707,12.07303 7.41445,12.34456 -3.00886,-0.19912 -2.7672,-4.76799 -2.7672,-4.76799 0.59386,0.8798 1.01313,1.40539 1.98512,1.27684 0.63642,-1.32362 0.73145,-2.8367 0.94532,-4.16033 1.20906,1.32973 0.65414,2.14685 0.92185,3.47439 1.14997,0.11609 1.86196,-0.0385 2.38763,-0.92129 0,0 -0.12399,4.97584 -3.15239,5.10286 8.07894,-0.0602 8.4073,-13.20491 8.4073,-13.20491 -1.3598,2.28362 -3.20087,2.68514 -6.17564,2.38482 -0.69251,-3.4341 0.74277,-5.54838 -2.38483,-8.98813 z" />
  </g>
</svg>
