<?xml version="1.0" encoding="UTF-8" standalone="no"?>
<!-- Created with Inkscape (http://www.inkscape.org/) -->

<svg
   width="11.7253mm"
   height="14.76657mm"
   viewBox="0 0 11.7253 14.76657"
   version="1.1"
   id="svg1"
   inkscape:version="1.3 (0e150ed6c4, 2023-07-21)"
   sodipodi:docname="localBrancp.svg"
   xmlns:inkscape="http://www.inkscape.org/namespaces/inkscape"
   xmlns:sodipodi="http://sodipodi.sourceforge.net/DTD/sodipodi-0.dtd"
   xmlns="http://www.w3.org/2000/svg"
   xmlns:svg="http://www.w3.org/2000/svg">
  <sodipodi:namedview
     id="namedview1"
     pagecolor="#ffffff"
     bordercolor="#000000"
     borderopacity="0.25"
     inkscape:showpageshadow="2"
     inkscape:pageopacity="0.0"
     inkscape:pagecheckerboard="0"
     inkscape:deskcolor="#d1d1d1"
     inkscape:document-units="mm"
     inkscape:zoom="0.66457632"
     inkscape:cx="-309.21956"
     inkscape:cy="-87.273648"
     inkscape:window-width="1920"
     inkscape:window-height="974"
     inkscape:window-x="-11"
     inkscape:window-y="-11"
     inkscape:window-maximized="1"
     inkscape:current-layer="layer1" />
  <defs
     id="defs1" />
  <g
     inkscape:label="Camada 1"
     inkscape:groupmode="layer"
     id="layer1"
     transform="translate(-186.79584,-171.45)">
    <path
       id="circle156"
       style="fill:#ffffff;stroke-width:0.27616;stroke-linecap:round;stroke-linejoin:round;paint-order:markers stroke fill"
       d="m 192.65849,171.45 c -3.23786,0 -5.86265,2.62479 -5.86265,5.86265 0,3.23786 3.61412,8.90392 5.86265,8.90392 2.24852,0 5.86265,-5.66606 5.86265,-8.90392 0,-3.23786 -2.62479,-5.86268 -5.86265,-5.86265 z m 0,3.65052 a 2.2121514,2.2121514 0 0 1 2.21217,2.21213 2.2121514,2.2121514 0 0 1 -2.21217,2.21217 2.2121514,2.2121514 0 0 1 -2.21215,-2.21217 2.2121514,2.2121514 0 0 1 2.21215,-2.21213 z" />
  </g>
</svg>
