<?xml version="1.0" encoding="UTF-8" standalone="no"?>
<!-- Created with Inkscape (http://www.inkscape.org/) -->

<svg
   width="11.7253mm"
   height="14.76657mm"
   viewBox="0 0 11.7253 14.76657"
   version="1.1"
   id="svg1"
   inkscape:version="1.3 (0e150ed6c4, 2023-07-21)"
   sodipodi:docname="localBranco.svg"
   xmlns:inkscape="http://www.inkscape.org/namespaces/inkscape"
   xmlns:sodipodi="http://sodipodi.sourceforge.net/DTD/sodipodi-0.dtd"
   xmlns="http://www.w3.org/2000/svg"
   xmlns:svg="http://www.w3.org/2000/svg">
  <sodipodi:namedview
     id="namedview1"
     pagecolor="#ffffff"
     bordercolor="#000000"
     borderopacity="0.25"
     inkscape:showpageshadow="2"
     inkscape:pageopacity="0.0"
     inkscape:pagecheckerboard="0"
     inkscape:deskcolor="#d1d1d1"
     inkscape:document-units="mm"
     inkscape:zoom="2.3150307"
     inkscape:cx="-109.50179"
     inkscape:cy="-67.817676"
     inkscape:window-width="1920"
     inkscape:window-height="974"
     inkscape:window-x="-11"
     inkscape:window-y="-11"
     inkscape:window-maximized="1"
     inkscape:current-layer="layer1" />
  <defs
     id="defs1" />
  <g
     inkscape:label="Camada 1"
     inkscape:groupmode="layer"
     id="layer1"
     transform="translate(-186.79584,-171.45)">
    <path
       id="circle156"
       style="fill:#ffffff;stroke-width:0.216313;stroke-linecap:round;stroke-linejoin:round;paint-order:markers stroke fill"
       d="m 192.65849,173.05005 c -2.53617,0 -4.59214,2.05597 -4.59214,4.59214 0,2.53618 2.83089,6.97433 4.59214,6.97433 1.76124,0 4.59214,-4.43815 4.59214,-6.97433 0,-2.53617 -2.05597,-4.59216 -4.59214,-4.59214 z m 0,2.85941 a 1.7327503,1.7327503 0 0 1 1.73276,1.73273 1.7327503,1.7327503 0 0 1 -1.73276,1.73277 1.7327503,1.7327503 0 0 1 -1.73275,-1.73277 1.7327503,1.7327503 0 0 1 1.73275,-1.73273 z" />
  </g>
</svg>
