<?xml version="1.0" encoding="UTF-8" standalone="no"?>
<!-- Created with Inkscape (http://www.inkscape.org/) -->

<svg
   width="67.574516mm"
   height="67.575241mm"
   viewBox="0 0 67.574516 67.575241"
   version="1.1"
   id="svg1"
   xml:space="preserve"
   inkscape:version="1.3 (0e150ed6c4, 2023-07-21)"
   sodipodi:docname="logoInterno.svg"
   xmlns:inkscape="http://www.inkscape.org/namespaces/inkscape"
   xmlns:sodipodi="http://sodipodi.sourceforge.net/DTD/sodipodi-0.dtd"
   xmlns="http://www.w3.org/2000/svg"
   xmlns:svg="http://www.w3.org/2000/svg"><sodipodi:namedview
     id="namedview1"
     pagecolor="#ffffff"
     bordercolor="#000000"
     borderopacity="0.25"
     inkscape:showpageshadow="2"
     inkscape:pageopacity="0.0"
     inkscape:pagecheckerboard="0"
     inkscape:deskcolor="#d1d1d1"
     inkscape:document-units="mm"
     inkscape:zoom="1.4142136"
     inkscape:cx="71.06423"
     inkscape:cy="144.24978"
     inkscape:window-width="1920"
     inkscape:window-height="1009"
     inkscape:window-x="-8"
     inkscape:window-y="-8"
     inkscape:window-maximized="1"
     inkscape:current-layer="layer1" /><defs
     id="defs1"><inkscape:path-effect
       effect="fillet_chamfer"
       id="path-effect32"
       is_visible="true"
       lpeversion="1"
       nodesatellites_param="F,0,0,1,0,0,0,1 @ F,0,0,1,0,0,0,1 @ F,0,0,1,0,0,0,1 @ F,0,0,1,0,0,0,1 @ F,0,0,1,0,0,0,1 @ F,0,0,1,0,0,0,1 @ F,0,0,1,0,0,0,1 @ F,0,0,1,0,0,0,1 @ F,0,0,1,0,0,0,1 @ F,0,0,1,0,0,0,1 @ F,0,0,1,0,0,0,1 | F,0,0,1,0,0,0,1 @ F,0,0,1,0,0,0,1 @ F,0,0,1,0,0,0,1 @ F,0,0,1,0,0,0,1 @ F,0,0,1,0,0,0,1 @ F,0,0,1,0,0,0,1 @ F,0,0,1,0,0,0,1 @ F,0,0,1,0,0,0,1 @ F,0,0,1,0,0,0,1 @ F,0,0,1,0,0,0,1 @ F,0,0,1,0,0,0,1 @ F,0,0,1,0,0,0,1 | F,0,0,1,0,0,0,1 @ F,0,0,1,0,0,0,1 @ F,0,0,1,0,0,0,1 @ F,0,0,1,0,0,0,1 @ F,0,0,1,0,0,0,1 @ F,0,0,1,0,0,0,1 @ F,0,0,1,0,0,0,1 @ F,0,0,1,0,0,0,1 @ F,0,0,1,0,0,0,1 @ F,0,0,1,0,0,0,1 @ F,0,0,1,0,0,0,1 @ F,0,0,1,0,0.57144681,0,1 @ F,0,0,1,0,0,0,1 @ F,0,0,1,0,0,0,1 @ F,0,0,1,0,0,0,1 @ F,0,0,1,0,0,0,1 @ F,0,0,1,0,0,0,1 @ F,0,0,1,0,0,0,1 @ F,0,0,1,0,0,0,1 | F,0,0,1,0,0,0,1 @ F,0,0,1,0,0,0,1 @ F,0,0,1,0,0,0,1 @ F,0,0,1,0,0,0,1 @ F,0,0,1,0,0,0,1 @ F,0,0,1,0,0,0,1 @ F,0,0,1,0,0,0,1 @ F,0,0,1,0,0,0,1 @ F,0,0,1,0,0,0,1 @ F,0,0,1,0,0,0,1 @ F,0,0,1,0,0,0,1 | F,0,0,1,0,0,0,1 @ F,0,0,1,0,0,0,1 @ F,0,0,1,0,0,0,1 @ F,0,0,1,0,0,0,1 @ F,0,0,1,0,0,0,1 @ F,0,0,1,0,0,0,1 @ F,0,0,1,0,0,0,1 @ F,0,0,1,0,0,0,1 | F,0,0,1,0,0,0,1 @ F,0,0,1,0,0,0,1 @ F,0,0,1,0,0,0,1 @ F,0,0,1,0,0,0,1 @ F,0,0,1,0,0,0,1"
       radius="0"
       unit="px"
       method="auto"
       mode="F"
       chamfer_steps="1"
       flexible="false"
       use_knot_distance="true"
       apply_no_radius="true"
       apply_with_radius="true"
       only_selected="false"
       hide_knots="false" /><inkscape:path-effect
       effect="fillet_chamfer"
       id="path-effect30"
       is_visible="true"
       lpeversion="1"
       nodesatellites_param="F,0,1,1,0,1.0536839,0,1 @ F,0,1,1,0,1.0536839,0,1 @ F,0,1,1,0,1.0536839,0,1"
       radius="0"
       unit="px"
       method="auto"
       mode="F"
       chamfer_steps="1"
       flexible="false"
       use_knot_distance="true"
       apply_no_radius="true"
       apply_with_radius="true"
       only_selected="false"
       hide_knots="false" /></defs><g
     inkscape:label="Camada 1"
     inkscape:groupmode="layer"
     id="layer1"
     transform="translate(-58.361565,-161.61562)"><path
       id="path6-2-9"
       style="fill:#ffffff;fill-opacity:1;stroke:none;stroke-width:1.31717;stroke-linecap:round;stroke-dasharray:none;stroke-opacity:1"
       d="m 92.148825,162.27421 c -18.29672,6e-5 -33.129014,14.83268 -33.128675,33.1294 6.4e-5,18.29643 14.83224,33.12861 33.128675,33.12867 18.296435,-6e-5 33.128615,-14.83224 33.128675,-33.12867 3.4e-4,-18.29672 -14.83196,-33.12934 -33.128675,-33.1294 z"
       sodipodi:nodetypes="ccccc" /><path
       id="rect30"
       style="font-variation-settings:normal;opacity:1;fill:#ff480f;fill-opacity:1;stroke:#012226;stroke-width:2.77678;stroke-linecap:round;stroke-linejoin:miter;stroke-miterlimit:4;stroke-dasharray:none;stroke-dashoffset:0;stroke-opacity:1;paint-order:markers stroke fill;stop-color:#000000;stop-opacity:1"
       d="m 91.601113,192.48094 a 1.082296,0.8011653 0 0 0 -0.596506,0.22469 l -6.374982,4.71921 a 0.44830138,0.33185331 0 0 0 0.316977,0.56642 h 1.153555 v 5.03017 c 0,1.08741 0.874636,1.96339 1.962049,1.96339 h 7.41552 c 1.087413,0 1.962718,-0.87598 1.962718,-1.96339 v -5.03017 h 1.152886 a 0.44830138,0.33185331 0 0 0 0.316977,-0.56642 l -6.374983,-4.71921 a 1.082296,0.8011653 0 0 0 -0.934211,-0.22469 z" /><path
       style="font-variation-settings:normal;opacity:1;fill:#012226;fill-opacity:1;stroke:none;stroke-width:2.89294;stroke-linecap:round;stroke-linejoin:miter;stroke-miterlimit:4;stroke-dasharray:none;stroke-dashoffset:0;stroke-opacity:1;paint-order:markers stroke fill;stop-color:#000000;stop-opacity:1"
       d="m 77.068328,203.24126 c 6.384108,-4.92914 9.645864,-0.93003 14.940092,-1.0508 5.294228,-0.12073 9.08203,-3.3467 15.15717,1.17125 v 10.51091 H 75.682666 Z"
       id="path24-0"
       sodipodi:nodetypes="czcccc" /><path
       id="path6-2-4"
       style="fill:#ffffff;fill-opacity:1;stroke:none;stroke-width:1.12647;stroke-linecap:round;stroke-dasharray:none"
       d="M 92.148825,167.07068 A 28.33236,28.33236 0 0 0 63.81656,195.40356 28.33236,28.33236 0 0 0 92.148825,223.73581 28.33236,28.33236 0 0 0 120.48108,195.40356 28.33236,28.33236 0 0 0 92.148825,167.07068 Z m 0,13.79791 a 14.534891,14.534891 0 0 1 14.534965,14.53497 14.534891,14.534891 0 0 1 -14.534965,14.53436 14.534891,14.534891 0 0 1 -14.53496,-14.53436 14.534891,14.534891 0 0 1 14.53496,-14.53497 z" /><path
       id="path29"
       style="font-variation-settings:normal;opacity:1;vector-effect:none;fill:#ffffff;fill-opacity:1;stroke:#012226;stroke-width:2.77678;stroke-linecap:round;stroke-linejoin:miter;stroke-miterlimit:4;stroke-dasharray:none;stroke-dashoffset:0;stroke-opacity:1;-inkscape-stroke:none;paint-order:markers stroke fill;stop-color:#000000;stop-opacity:1"
       d="m 91.759841,183.25083 c -0.564782,7.5e-4 -1.100407,0.24254 -1.463595,0.6607 -0.222647,-0.0904 -0.460173,-0.1369 -0.699916,-0.13705 -1.044128,0 -1.890547,0.86053 -1.890508,1.92202 -3.9e-5,1.06149 0.84638,1.92262 1.890508,1.92202 l 5.257069,-0.003 c 0.269865,-1.5e-4 1.734657,-0.10124 1.738429,-1.4683 1.91e-4,-0.81356 -0.752768,-1.47315 -1.681632,-1.47312 -0.471888,9.7e-4 -0.921597,0.17556 -1.239328,0.48114 0.0093,-0.10619 0.135865,-1.90441 -1.911027,-1.90441 z"
       sodipodi:nodetypes="ccccsscccc" /><path
       style="font-variation-settings:normal;opacity:1;fill:none;fill-opacity:1;stroke:#ffffff;stroke-width:1.20741;stroke-linecap:round;stroke-linejoin:miter;stroke-miterlimit:4;stroke-dasharray:none;stroke-dashoffset:0;stroke-opacity:1;paint-order:markers stroke fill"
       d="m 104.47839,204.25138 c -6.388982,3.35403 -17.508418,-2.26799 -24.063426,0.13317 m 24.063426,-0.13317 c -6.388982,3.35403 -17.508418,-2.26799 -24.063426,0.13317"
       id="path30"
       sodipodi:nodetypes="cc" /><path
       style="font-variation-settings:normal;fill:none;fill-opacity:1;stroke:#ffffff;stroke-width:1.23062;stroke-linecap:round;stroke-linejoin:miter;stroke-miterlimit:4;stroke-dasharray:none;stroke-dashoffset:0;stroke-opacity:1;paint-order:markers stroke fill"
       d="m 100.81069,208.16888 c -4.980693,3.51383 -13.649138,-2.37604 -18.759265,0.13953 m 18.759265,-0.13953 c -4.980693,3.51383 -13.649138,-2.37604 -18.759265,0.13953"
       id="path30-0"
       sodipodi:nodetypes="cc" /></g></svg>
