<?xml version="1.0" encoding="UTF-8" standalone="no"?>
<!-- Created with Inkscape (http://www.inkscape.org/) -->

<svg
   width="67.574516mm"
   height="67.575241mm"
   viewBox="0 0 67.574516 67.575241"
   version="1.1"
   id="svg1"
   xml:space="preserve"
   inkscape:version="1.3 (0e150ed6c4, 2023-07-21)"
   sodipodi:docname="logoSosClima.svg"
   xmlns:inkscape="http://www.inkscape.org/namespaces/inkscape"
   xmlns:sodipodi="http://sodipodi.sourceforge.net/DTD/sodipodi-0.dtd"
   xmlns="http://www.w3.org/2000/svg"
   xmlns:svg="http://www.w3.org/2000/svg"><sodipodi:namedview
     id="namedview1"
     pagecolor="#ffffff"
     bordercolor="#000000"
     borderopacity="0.25"
     inkscape:showpageshadow="2"
     inkscape:pageopacity="0.0"
     inkscape:pagecheckerboard="0"
     inkscape:deskcolor="#d1d1d1"
     inkscape:document-units="mm"
     inkscape:zoom="1.4142136"
     inkscape:cx="123.03658"
     inkscape:cy="69.296465"
     inkscape:window-width="1920"
     inkscape:window-height="1009"
     inkscape:window-x="-8"
     inkscape:window-y="-8"
     inkscape:window-maximized="1"
     inkscape:current-layer="layer1" /><defs
     id="defs1"><inkscape:path-effect
       effect="fillet_chamfer"
       id="path-effect32"
       is_visible="true"
       lpeversion="1"
       nodesatellites_param="F,0,0,1,0,0,0,1 @ F,0,0,1,0,0,0,1 @ F,0,0,1,0,0,0,1 @ F,0,0,1,0,0,0,1 @ F,0,0,1,0,0,0,1 @ F,0,0,1,0,0,0,1 @ F,0,0,1,0,0,0,1 @ F,0,0,1,0,0,0,1 @ F,0,0,1,0,0,0,1 @ F,0,0,1,0,0,0,1 @ F,0,0,1,0,0,0,1 | F,0,0,1,0,0,0,1 @ F,0,0,1,0,0,0,1 @ F,0,0,1,0,0,0,1 @ F,0,0,1,0,0,0,1 @ F,0,0,1,0,0,0,1 @ F,0,0,1,0,0,0,1 @ F,0,0,1,0,0,0,1 @ F,0,0,1,0,0,0,1 @ F,0,0,1,0,0,0,1 @ F,0,0,1,0,0,0,1 @ F,0,0,1,0,0,0,1 @ F,0,0,1,0,0,0,1 | F,0,0,1,0,0,0,1 @ F,0,0,1,0,0,0,1 @ F,0,0,1,0,0,0,1 @ F,0,0,1,0,0,0,1 @ F,0,0,1,0,0,0,1 @ F,0,0,1,0,0,0,1 @ F,0,0,1,0,0,0,1 @ F,0,0,1,0,0,0,1 @ F,0,0,1,0,0,0,1 @ F,0,0,1,0,0,0,1 @ F,0,0,1,0,0,0,1 @ F,0,0,1,0,0.57144681,0,1 @ F,0,0,1,0,0,0,1 @ F,0,0,1,0,0,0,1 @ F,0,0,1,0,0,0,1 @ F,0,0,1,0,0,0,1 @ F,0,0,1,0,0,0,1 @ F,0,0,1,0,0,0,1 @ F,0,0,1,0,0,0,1 | F,0,0,1,0,0,0,1 @ F,0,0,1,0,0,0,1 @ F,0,0,1,0,0,0,1 @ F,0,0,1,0,0,0,1 @ F,0,0,1,0,0,0,1 @ F,0,0,1,0,0,0,1 @ F,0,0,1,0,0,0,1 @ F,0,0,1,0,0,0,1 @ F,0,0,1,0,0,0,1 @ F,0,0,1,0,0,0,1 @ F,0,0,1,0,0,0,1 | F,0,0,1,0,0,0,1 @ F,0,0,1,0,0,0,1 @ F,0,0,1,0,0,0,1 @ F,0,0,1,0,0,0,1 @ F,0,0,1,0,0,0,1 @ F,0,0,1,0,0,0,1 @ F,0,0,1,0,0,0,1 @ F,0,0,1,0,0,0,1 | F,0,0,1,0,0,0,1 @ F,0,0,1,0,0,0,1 @ F,0,0,1,0,0,0,1 @ F,0,0,1,0,0,0,1 @ F,0,0,1,0,0,0,1"
       radius="0"
       unit="px"
       method="auto"
       mode="F"
       chamfer_steps="1"
       flexible="false"
       use_knot_distance="true"
       apply_no_radius="true"
       apply_with_radius="true"
       only_selected="false"
       hide_knots="false" /><inkscape:path-effect
       effect="fillet_chamfer"
       id="path-effect30"
       is_visible="true"
       lpeversion="1"
       nodesatellites_param="F,0,1,1,0,1.0536839,0,1 @ F,0,1,1,0,1.0536839,0,1 @ F,0,1,1,0,1.0536839,0,1"
       radius="0"
       unit="px"
       method="auto"
       mode="F"
       chamfer_steps="1"
       flexible="false"
       use_knot_distance="true"
       apply_no_radius="true"
       apply_with_radius="true"
       only_selected="false"
       hide_knots="false" /></defs><g
     inkscape:label="Camada 1"
     inkscape:groupmode="layer"
     id="layer1"
     transform="translate(-58.361565,-161.61562)"><path
       id="path6-2-9"
       style="fill:#ffffff;fill-opacity:1;stroke:none;stroke-width:1.31717;stroke-linecap:round;stroke-dasharray:none;stroke-opacity:1"
       d="m 92.148825,162.27421 c -18.29672,6e-5 -33.129014,14.83268 -33.128675,33.1294 6.4e-5,18.29643 14.83224,33.12861 33.128675,33.12867 18.296435,-6e-5 33.128615,-14.83224 33.128675,-33.12867 3.4e-4,-18.29672 -14.83196,-33.12934 -33.128675,-33.1294 z"
       sodipodi:nodetypes="ccccc" /><path
       id="rect30"
       style="font-variation-settings:normal;opacity:1;fill:#ff480f;fill-opacity:1;stroke:#012226;stroke-width:2.77678;stroke-linecap:round;stroke-linejoin:miter;stroke-miterlimit:4;stroke-dasharray:none;stroke-dashoffset:0;stroke-opacity:1;paint-order:markers stroke fill;stop-color:#000000;stop-opacity:1"
       d="m 91.601113,192.48094 a 1.082296,0.8011653 0 0 0 -0.596506,0.22469 l -6.374982,4.71921 a 0.44830138,0.33185331 0 0 0 0.316977,0.56642 h 1.153555 v 5.03017 c 0,1.08741 0.874636,1.96339 1.962049,1.96339 h 7.41552 c 1.087413,0 1.962718,-0.87598 1.962718,-1.96339 v -5.03017 h 1.152886 a 0.44830138,0.33185331 0 0 0 0.316977,-0.56642 l -6.374983,-4.71921 a 1.082296,0.8011653 0 0 0 -0.934211,-0.22469 z" /><path
       style="font-variation-settings:normal;opacity:1;fill:#012226;fill-opacity:1;stroke:none;stroke-width:2.89294;stroke-linecap:round;stroke-linejoin:miter;stroke-miterlimit:4;stroke-dasharray:none;stroke-dashoffset:0;stroke-opacity:1;paint-order:markers stroke fill;stop-color:#000000;stop-opacity:1"
       d="m 77.068328,203.24126 c 6.384108,-4.92914 9.645864,-0.93003 14.940092,-1.0508 5.294228,-0.12073 9.08203,-3.3467 15.15717,1.17125 v 10.51091 H 75.682666 Z"
       id="path24-0"
       sodipodi:nodetypes="czcccc" /><path
       id="path6-2-4"
       style="fill:#ffffff;fill-opacity:1;stroke:none;stroke-width:1.12647;stroke-linecap:round;stroke-dasharray:none"
       d="M 92.148825,167.07068 A 28.33236,28.33236 0 0 0 63.81656,195.40356 28.33236,28.33236 0 0 0 92.148825,223.73581 28.33236,28.33236 0 0 0 120.48108,195.40356 28.33236,28.33236 0 0 0 92.148825,167.07068 Z m 0,13.79791 a 14.534891,14.534891 0 0 1 14.534965,14.53497 14.534891,14.534891 0 0 1 -14.534965,14.53436 14.534891,14.534891 0 0 1 -14.53496,-14.53436 14.534891,14.534891 0 0 1 14.53496,-14.53497 z" /><path
       style="font-variation-settings:normal;opacity:1;fill:#ff480f;fill-opacity:1;stroke:#ff480f;stroke-width:0.283108;stroke-linecap:round;stroke-linejoin:miter;stroke-miterlimit:4;stroke-dasharray:none;stroke-dashoffset:0;stroke-opacity:1;paint-order:markers stroke fill"
       d="m 74.325279,168.13949 c -6.128943,4.02308 -10.874952,10.14349 -13.132451,17.13093 -0.212704,0.74467 -0.555314,1.49245 -0.59402,2.26114 0.581845,0.1239 1.228128,-0.10759 1.836883,-0.10828 4.588749,-0.28649 9.217525,-0.27515 13.793568,0.23363 0.502011,-0.26289 0.595686,-0.94515 0.944207,-1.36616 1.293492,-2.16292 3.129571,-3.96788 5.163229,-5.44234 0.331359,-0.0852 0.709414,-0.42167 0.460691,-0.61132 -1.727228,-1.8702 -3.969363,-3.6931 -5.322672,-5.85409 -1.272424,-1.88792 -2.12963,-3.99993 -2.911827,-6.12041 -0.04175,-0.0967 -0.127209,-0.15457 -0.237608,-0.12307 z"
       id="path31"
       sodipodi:nodetypes="ccccccccccc" /><path
       id="path23-6"
       style="fill:#012226;fill-opacity:1;stroke:none;stroke-opacity:1"
       d="m 30.255309,167.00578 c -0.08912,0.021 -0.162796,0.0969 -0.241808,0.21241 -0.175131,0.25615 -0.813104,3.59453 -0.730753,3.82373 0.02809,0.0781 0.192351,0.14524 0.365341,0.14895 0.27368,0.006 0.32976,-0.0443 0.432648,-0.38613 0.06503,-0.21608 0.119964,-0.45073 0.121806,-0.52151 0.0018,-0.0708 0.338103,-0.22271 0.74742,-0.33751 l 0.744143,-0.20887 0.414422,0.39087 c 0.345148,0.32558 0.449807,0.37323 0.625013,0.28427 0.389135,-0.19764 0.246865,-0.54008 -0.706778,-1.70073 -1.098711,-1.33721 -1.504096,-1.76846 -1.771454,-1.70548 z m -10.987478,-0.044 c -0.339,-0.0123 -0.700212,0.0638 -1.0646,0.23249 -0.662365,0.30663 -0.978188,0.71131 -1.133166,1.45241 -0.196022,0.93736 0.277726,1.89416 1.143901,2.31021 0.794301,0.38153 2.000388,0.21803 2.298545,-0.31145 0.09985,-0.17732 0.07959,-0.24809 -0.117729,-0.415 -0.139404,-0.11836 -0.30773,-0.17329 -0.406511,-0.1333 -0.617537,0.24985 -0.963318,0.27247 -1.332318,0.0867 -0.497553,-0.25051 -0.808597,-0.94737 -0.650497,-1.4571 0.29761,-0.95951 1.339758,-1.19238 2.083209,-0.46546 0.437421,0.4277 0.954155,-0.021 0.598329,-0.51955 -0.351444,-0.49241 -0.854168,-0.75917 -1.419163,-0.77993 z m 9.082963,0.39601 c -0.200672,-0.0322 -0.435444,0.26331 -0.742296,0.91755 l -0.404618,0.86227 -0.501878,-0.74733 c -0.537885,-0.80093 -0.705322,-0.93502 -0.937015,-0.75098 -0.11388,0.0905 -0.1556,0.50661 -0.184112,1.83511 -0.03103,1.44565 -0.01,1.74645 0.130966,1.89358 0.09215,0.0962 0.268665,0.16292 0.392239,0.14797 0.205373,-0.0248 0.230672,-0.1086 0.297417,-0.97311 l 0.07302,-0.94588 0.392692,0.56046 c 0.02837,0.0405 0.0564,0.0801 0.08376,0.11822 0.182428,0.2544 0.497843,0.23189 0.639189,-0.0488 0.01751,-0.0348 0.03529,-0.0705 0.05318,-0.10708 l 0.293545,-0.6 0.07984,0.6871 c 0.102573,0.8843 0.213088,1.16446 0.460766,1.16978 0.445215,0.01 0.477587,-0.19826 0.317354,-2.02248 -0.08296,-0.94443 -0.196831,-1.77986 -0.253232,-1.85639 -0.0607,-0.0823 -0.123935,-0.12931 -0.190825,-0.14003 z m -6.603474,0.0857 c -0.115135,-0.0163 -0.235789,0.0207 -0.315759,0.11779 -0.05871,0.0712 -0.151608,0.8686 -0.206526,1.77158 -0.102552,1.6861 -0.07165,1.887 0.308899,2.03229 0.321121,0.12265 1.957969,0.11604 2.087872,-0.008 0.18456,-0.17681 0.16856,-0.5738 -0.0263,-0.6534 -0.09093,-0.0372 -0.469757,-0.0742 -0.841789,-0.0822 l -0.676289,-0.0145 0.02955,-1.37687 c 0.01625,-0.75736 -0.018,-1.46987 -0.0756,-1.58328 -0.0593,-0.11675 -0.168929,-0.18672 -0.284063,-0.20303 z m 2.90613,0.0624 c -0.117212,0.008 -0.229501,0.0732 -0.295612,0.19059 -0.151536,0.26914 -0.214599,3.3273 -0.07424,3.60366 0.0751,0.1479 0.194274,0.20417 0.39143,0.1857 l 0.283304,-0.0265 0.06822,-1.82986 c 0.04695,-1.26021 0.03156,-1.87608 -0.04955,-1.97814 -0.08457,-0.10645 -0.206335,-0.15398 -0.323548,-0.14547 z m 5.894884,0.87496 c 0.05569,-0.0264 0.135452,0.0567 0.27932,0.23136 0.307371,0.37301 0.308516,0.45994 0.0061,0.53406 -0.450743,0.11049 -0.492337,0.0771 -0.419181,-0.33773 0.04674,-0.26503 0.07806,-0.40127 0.133748,-0.42769 z"
       inkscape:path-effect="#path-effect32"
       inkscape:original-d="m 30.255309,167.00578 c -0.08912,0.021 -0.162796,0.0969 -0.241808,0.21241 -0.175131,0.25615 -0.813104,3.59453 -0.730753,3.82373 0.02809,0.0781 0.192351,0.14524 0.365341,0.14895 0.27368,0.006 0.32976,-0.0443 0.432648,-0.38613 0.06503,-0.21608 0.119964,-0.45073 0.121806,-0.52151 0.0018,-0.0708 0.338103,-0.22271 0.74742,-0.33751 l 0.744143,-0.20887 0.414422,0.39087 c 0.345148,0.32558 0.449807,0.37323 0.625013,0.28427 0.389135,-0.19764 0.246865,-0.54008 -0.706778,-1.70073 -1.098711,-1.33721 -1.504096,-1.76846 -1.771454,-1.70548 z m -10.987478,-0.044 c -0.339,-0.0123 -0.700212,0.0638 -1.0646,0.23249 -0.662365,0.30663 -0.978188,0.71131 -1.133166,1.45241 -0.196022,0.93736 0.277726,1.89416 1.143901,2.31021 0.794301,0.38153 2.000388,0.21803 2.298545,-0.31145 0.09985,-0.17732 0.07959,-0.24809 -0.117729,-0.415 -0.139404,-0.11836 -0.30773,-0.17329 -0.406511,-0.1333 -0.617537,0.24985 -0.963318,0.27247 -1.332318,0.0867 -0.497553,-0.25051 -0.808597,-0.94737 -0.650497,-1.4571 0.29761,-0.95951 1.339758,-1.19238 2.083209,-0.46546 0.437421,0.4277 0.954155,-0.021 0.598329,-0.51955 -0.351444,-0.49241 -0.854168,-0.75917 -1.419163,-0.77993 z m 9.082963,0.39601 c -0.200672,-0.0322 -0.435444,0.26331 -0.742296,0.91755 l -0.404618,0.86227 -0.501878,-0.74733 c -0.537885,-0.80093 -0.705322,-0.93502 -0.937015,-0.75098 -0.11388,0.0905 -0.1556,0.50661 -0.184112,1.83511 -0.03103,1.44565 -0.01,1.74645 0.130966,1.89358 0.09215,0.0962 0.268665,0.16292 0.392239,0.14797 0.205373,-0.0248 0.230672,-0.1086 0.297417,-0.97311 l 0.07302,-0.94588 0.392692,0.56046 c 0.215793,0.30819 0.412348,0.56088 0.437122,0.56142 0.02477,5.3e-4 0.177398,-0.26906 0.339009,-0.59904 l 0.293545,-0.6 0.07984,0.6871 c 0.102573,0.8843 0.213088,1.16446 0.460766,1.16978 0.445215,0.01 0.477587,-0.19826 0.317354,-2.02248 -0.08296,-0.94443 -0.196831,-1.77986 -0.253232,-1.85639 -0.0607,-0.0823 -0.123935,-0.12931 -0.190825,-0.14003 z m -6.603474,0.0857 c -0.115135,-0.0163 -0.235789,0.0207 -0.315759,0.11779 -0.05871,0.0712 -0.151608,0.8686 -0.206526,1.77158 -0.102552,1.6861 -0.07165,1.887 0.308899,2.03229 0.321121,0.12265 1.957969,0.11604 2.087872,-0.008 0.18456,-0.17681 0.16856,-0.5738 -0.0263,-0.6534 -0.09093,-0.0372 -0.469757,-0.0742 -0.841789,-0.0822 l -0.676289,-0.0145 0.02955,-1.37687 c 0.01625,-0.75736 -0.018,-1.46987 -0.0756,-1.58328 -0.0593,-0.11675 -0.168929,-0.18672 -0.284063,-0.20303 z m 2.90613,0.0624 c -0.117212,0.008 -0.229501,0.0732 -0.295612,0.19059 -0.151536,0.26914 -0.214599,3.3273 -0.07424,3.60366 0.0751,0.1479 0.194274,0.20417 0.39143,0.1857 l 0.283304,-0.0265 0.06822,-1.82986 c 0.04695,-1.26021 0.03156,-1.87608 -0.04955,-1.97814 -0.08457,-0.10645 -0.206335,-0.15398 -0.323548,-0.14547 z m 5.894884,0.87496 c 0.05569,-0.0264 0.135452,0.0567 0.27932,0.23136 0.307371,0.37301 0.308516,0.45994 0.0061,0.53406 -0.450743,0.11049 -0.492337,0.0771 -0.419181,-0.33773 0.04674,-0.26503 0.07806,-0.40127 0.133748,-0.42769 z"
       transform="matrix(1.3828577,0,0,1.3828577,57.463725,-14.191955)" /><path
       style="font-variation-settings:normal;opacity:1;fill:#ff480f;fill-opacity:1;stroke:#ff480f;stroke-width:0.283108;stroke-linecap:round;stroke-linejoin:miter;stroke-miterlimit:4;stroke-dasharray:none;stroke-dashoffset:0;stroke-opacity:1;paint-order:markers stroke fill"
       d="m 67.412672,202.19411 c -2.293145,-0.0314 -4.586383,0.22114 -6.825277,0.70279 -0.35004,0.33445 0.06822,0.86887 0.09753,1.2714 1.902464,6.8625 6.127841,13.04215 11.820585,17.31942 0.64991,0.43848 1.244735,1.02011 1.958284,1.32593 0.405391,-0.35152 0.361984,-1.01864 0.587384,-1.49963 0.96219,-3.00366 2.336449,-5.9689 4.558377,-8.25701 0.869294,-0.99617 1.939952,-1.7801 2.91131,-2.66368 0.318603,-0.44611 -0.464989,-0.65961 -0.684805,-0.92178 -2.185795,-1.63125 -4.016384,-3.74412 -5.269068,-6.17482 -0.543113,-0.59922 -1.472925,-0.44666 -2.19001,-0.64192 -2.302813,-0.36598 -4.634587,-0.48789 -6.964313,-0.4607 z"
       id="path32" /><path
       id="path23-3-8"
       style="fill:#012226;fill-opacity:1;stroke:none;stroke-width:1.38286;stroke-opacity:1"
       d="m 91.81727,165.78935 c -0.405954,0.025 -0.822354,0.11312 -1.240362,0.27384 -1.722221,0.66203 -2.7314,2.1856 -2.733173,4.12519 -0.0017,1.83244 0.84883,3.19239 2.488837,3.97809 0.928307,0.4447 2.211181,0.45535 3.323315,0.0281 1.007423,-0.387 1.984503,-1.44515 2.336904,-2.53097 1.008554,-3.10752 -1.333812,-6.04868 -4.175521,-5.87427 z m -7.560946,1.2188 c -1.100755,0.0162 -2.249752,0.69484 -2.696933,1.73012 -0.341815,0.79135 -0.274686,1.53655 0.207349,2.30146 0.411179,0.65249 0.98432,0.89542 2.360634,1.00202 1.230948,0.0954 1.725205,0.33479 1.729598,0.83745 0.0076,0.86153 -0.96286,1.16357 -2.413914,0.75147 -0.385869,-0.10966 -0.784446,0.27127 -0.780301,0.74575 0.0041,0.46898 0.508629,0.90159 1.234856,1.05831 0.837803,0.18078 0.84127,0.18081 1.583201,-0.0498 1.342077,-0.41673 2.135403,-1.38305 2.124869,-2.58842 -0.0051,-0.57375 -0.30138,-1.32694 -0.660717,-1.68005 -0.401347,-0.3944 -1.212811,-0.66479 -2.290662,-0.76394 -0.633472,-0.0582 -1.250967,-0.18697 -1.37246,-0.28601 -0.335959,-0.2739 -0.269305,-0.67132 0.172535,-1.02774 0.337757,-0.27246 0.525707,-0.31053 1.241972,-0.25312 0.771734,0.062 0.864044,0.0373 1.070901,-0.28448 0.321996,-0.50092 0.144198,-1.00121 -0.454252,-1.27882 -0.328422,-0.15232 -0.689765,-0.22008 -1.05668,-0.21443 z m 15.759296,-0.0727 c -1.147406,-0.004 -2.199888,0.68808 -2.534443,1.92452 -0.340198,1.2573 0.11504,1.98558 1.888039,3.02142 0.783974,0.45803 0.916374,0.59563 0.919504,0.95389 0.01,1.11044 -1.884198,1.17719 -2.47975,0.0874 -0.379911,-0.6952 -1.223414,-0.75731 -1.463809,-0.108 -0.256499,0.69283 0.480849,1.75399 1.557489,2.24107 0.651467,0.29475 1.623058,0.33661 2.42855,0.10538 0.67254,-0.19315 1.52342,-1.13567 1.64631,-1.82385 0.22258,-1.24648 -0.38091,-2.16991 -2.090394,-3.19761 -0.792913,-0.47667 -0.94961,-0.81852 -0.570443,-1.24492 0.467462,-0.52569 1.388887,-0.33559 2.127747,0.43878 0.42421,0.44462 0.8112,0.43914 1.21687,-0.0176 0.34707,-0.39033 0.13443,-0.93999 -0.61273,-1.58615 -0.62246,-0.53834 -1.34451,-0.79194 -2.03295,-0.79479 z m -7.684155,0.61315 c 0.809966,0.0842 1.323436,0.44385 1.78178,1.2479 0.68567,1.20285 0.335753,2.97366 -0.718575,3.63806 -1.169991,0.73732 -2.643932,0.46557 -3.323422,-0.61268 -1.290558,-2.04793 0.01,-4.50703 2.260217,-4.27328 z" /><path
       style="font-variation-settings:normal;fill:#ff480f;fill-opacity:1;stroke:#ff480f;stroke-width:0.283108;stroke-linecap:round;stroke-linejoin:miter;stroke-miterlimit:4;stroke-dasharray:none;stroke-dashoffset:0;stroke-opacity:1;paint-order:markers stroke fill"
       d="m 110.07193,168.13949 c 6.12893,4.02308 10.87494,10.14349 13.13244,17.13093 0.21271,0.74467 0.55532,1.49245 0.59402,2.26114 -0.58183,0.1239 -1.22813,-0.10759 -1.83687,-0.10828 -4.58875,-0.28649 -9.21754,-0.27515 -13.79358,0.23363 -0.50201,-0.26291 -0.59568,-0.94515 -0.9442,-1.36616 -1.2935,-2.16292 -3.12958,-3.96788 -5.16323,-5.44234 -0.33136,-0.0852 -0.70942,-0.42169 -0.46069,-0.61132 1.72723,-1.8702 3.96936,-3.6931 5.32268,-5.85409 1.27242,-1.88792 2.12962,-3.99993 2.91181,-6.12041 0.0418,-0.0967 0.12722,-0.15457 0.23762,-0.12307 z"
       id="path31-8"
       sodipodi:nodetypes="ccccccccccc" /><path
       id="path6-2-8"
       style="fill:none;fill-opacity:1;stroke:#942300;stroke-width:1.1791;stroke-linecap:round;stroke-dasharray:none;stroke-opacity:1"
       d="m 63.28864,202.25714 c 1.773396,7.49585 6.391524,13.89185 12.65159,17.98521" /><path
       style="font-variation-settings:normal;fill:#ff480f;fill-opacity:1;stroke:#ff480f;stroke-width:0.283108;stroke-linecap:round;stroke-linejoin:miter;stroke-miterlimit:4;stroke-dasharray:none;stroke-dashoffset:0;stroke-opacity:1;paint-order:markers stroke fill"
       d="m 116.76851,202.19411 c 2.29314,-0.0314 4.58637,0.22114 6.82528,0.70279 0.35004,0.33443 -0.0682,0.86887 -0.0975,1.2714 -1.90246,6.8625 -6.12784,13.04215 -11.82058,17.31942 -0.64992,0.43848 -1.24474,1.02011 -1.95829,1.32593 -0.40539,-0.35154 -0.36198,-1.01864 -0.58739,-1.49963 -0.96219,-3.00366 -2.33644,-5.9689 -4.55836,-8.25701 -0.8693,-0.99617 -1.93996,-1.7801 -2.91132,-2.66368 -0.3186,-0.44611 0.46499,-0.65961 0.68481,-0.92178 2.18579,-1.63125 4.01638,-3.74412 5.26907,-6.17482 0.5431,-0.59922 1.47292,-0.44666 2.19,-0.64192 2.30282,-0.36598 4.6346,-0.48789 6.96432,-0.4607 z"
       id="path32-8" /><path
       style="font-variation-settings:normal;opacity:1;vector-effect:none;fill:#942300;fill-opacity:1;stroke:none;stroke-width:0.147388;stroke-linecap:round;stroke-linejoin:miter;stroke-miterlimit:4;stroke-dasharray:none;stroke-dashoffset:0;stroke-opacity:1;-inkscape-stroke:none;paint-order:markers stroke fill"
       d="m 62.740031,202.47721 c -0.6976,0.13081 -1.416896,0.1916 -2.096045,0.39856 -0.362098,0.20595 -0.141824,0.67954 -0.07112,0.98604 1.462288,5.4467 4.348889,10.50758 8.323985,14.51168 1.608388,1.62069 3.368935,3.10237 5.295638,4.33115 0.187434,0.15308 0.539267,0.0863 0.540514,-0.1933 0.175875,-0.70815 0.445909,-1.39462 0.575621,-2.11276 -0.082,-0.31169 -0.458561,-0.41727 -0.677106,-0.62358 -2.78366,-2.01055 -5.211251,-4.5008 -7.181745,-7.31584 -2.064272,-2.95969 -3.538637,-6.31083 -4.441935,-9.80885 -0.04974,-0.11367 -0.144351,-0.17629 -0.267803,-0.1731 z"
       id="path39" /><path
       id="path36"
       style="fill:none;fill-opacity:1;stroke:#942300;stroke-width:1.1791;stroke-linecap:round;stroke-dasharray:none;stroke-opacity:1"
       d="m 108.43682,220.19026 c 6.26171,-4.12308 10.86817,-10.55518 12.60758,-18.08448" /><path
       style="font-variation-settings:normal;opacity:1;vector-effect:none;fill:#942300;fill-opacity:1;stroke:none;stroke-width:0.208438;stroke-linecap:round;stroke-linejoin:miter;stroke-miterlimit:4;stroke-dasharray:none;stroke-dashoffset:0;stroke-opacity:1;-inkscape-stroke:none;paint-order:markers stroke fill"
       d="m 121.61075,202.50204 c -0.43925,0.0964 -0.40656,0.68848 -0.55969,1.02032 -1.85522,6.6346 -6.08024,12.56443 -11.7311,16.50266 -0.2866,0.11588 -0.36646,0.41014 -0.24729,0.678 0.18446,0.66641 0.32563,1.36304 0.60792,1.99145 0.35419,0.25907 0.68795,-0.22033 0.99028,-0.36319 6.08817,-4.17698 10.68014,-10.47363 12.78256,-17.55263 0.13151,-0.56806 0.43829,-1.14056 0.36551,-1.73277 -0.22701,-0.33945 -0.73822,-0.24499 -1.09052,-0.3625 -0.37297,-0.055 -0.74388,-0.13815 -1.11767,-0.18134 z"
       id="path40" /><path
       style="fill:none;fill-opacity:1;stroke:#012226;stroke-width:1.31717;stroke-linecap:round;stroke-dasharray:none;stroke-opacity:1"
       d="m 74.875373,223.67258 c 1.239277,-4.92563 3.043878,-9.70993 8.894199,-13.4828"
       id="path7-9-9"
       sodipodi:nodetypes="cc" /><path
       style="font-variation-settings:normal;opacity:1;vector-effect:none;fill:#942300;fill-opacity:1;stroke:none;stroke-width:0.208438;stroke-linecap:round;stroke-linejoin:miter;stroke-miterlimit:4;stroke-dasharray:none;stroke-dashoffset:0;stroke-opacity:1;-inkscape-stroke:none;paint-order:markers stroke fill"
       d="m 103.2205,178.66433 c -0.56893,0.60682 -1.24504,1.13969 -1.74784,1.79215 0.0137,0.37874 0.53172,0.48901 0.77384,0.73817 2.2834,1.65032 4.19975,3.82501 5.46857,6.34589 0.20684,0.39141 0.72066,0.10842 1.06015,0.13511 0.45557,-0.0813 0.9594,-0.0398 1.3876,-0.20101 0.29438,-0.25091 -0.0813,-0.64537 -0.15249,-0.92924 -1.09115,-2.37553 -2.63079,-4.55677 -4.57002,-6.31644 -0.64624,-0.57308 -1.28739,-1.19461 -2.03331,-1.61981 -0.0653,-0.0393 -0.1246,0.0419 -0.1865,0.0552 z"
       id="path41" /><path
       id="path14-4"
       style="fill:none;fill-opacity:1;stroke:#012226;stroke-width:1.31717;stroke-linecap:round;stroke-dasharray:none;stroke-opacity:1"
       d="m 76.745407,202.56704 c -5.465921,-0.98799 -11.055855,-1.33815 -16.855617,0"
       sodipodi:nodetypes="cc" /><path
       style="font-variation-settings:normal;opacity:1;vector-effect:none;fill:#942300;fill-opacity:1;stroke:none;stroke-width:0.208438;stroke-linecap:round;stroke-linejoin:miter;stroke-miterlimit:4;stroke-dasharray:none;stroke-dashoffset:0;stroke-opacity:1;-inkscape-stroke:none;paint-order:markers stroke fill"
       d="m 80.792333,178.67304 c -0.751973,0.41909 -1.359119,1.07134 -2.011223,1.63046 -2.088299,1.92098 -3.720198,4.32639 -4.784011,6.95117 0.05768,0.42433 0.614072,0.27722 0.918401,0.36395 0.48237,0.008 0.985161,0.17941 1.456664,0.0766 0.471903,-0.41476 0.637515,-1.07585 1.015979,-1.57005 1.377594,-2.17091 3.220197,-4.01852 5.367436,-5.42201 0.296151,-0.38185 -0.339663,-0.63035 -0.527824,-0.90608 -0.444773,-0.37193 -0.801159,-0.9052 -1.349391,-1.12537 -0.02854,-0.004 -0.0576,-0.003 -0.08603,0.001 z"
       id="path42" /><path
       id="path38"
       style="font-variation-settings:normal;opacity:1;vector-effect:none;fill:none;fill-opacity:1;stroke:#942300;stroke-width:1.1649;stroke-linecap:round;stroke-linejoin:miter;stroke-miterlimit:4;stroke-dasharray:none;stroke-dashoffset:0;stroke-opacity:1;-inkscape-stroke:none;stop-color:#000000;stop-opacity:1"
       d="m 110.94349,187.88185 c -1.45603,-4.06353 -4.19248,-7.51751 -7.72308,-9.87567 m -22.157005,0.01 c -3.54181,2.36992 -6.282822,5.84327 -7.731288,9.92827"
       sodipodi:nodetypes="cccc" /><path
       style="fill:none;fill-opacity:1;stroke:#012226;stroke-width:1.31717;stroke-linecap:round;stroke-dasharray:none;stroke-opacity:1"
       d="m 109.43081,167.134 c -1.38897,5.7144 -4.85908,9.92526 -8.8942,13.48281"
       id="path7-0-4"
       sodipodi:nodetypes="cc" /><path
       style="fill:none;fill-opacity:1;stroke:#012226;stroke-width:1.31717;stroke-linecap:round;stroke-dasharray:none;stroke-opacity:1"
       d="m 109.43081,223.67258 c -1.23928,-4.92563 -3.04388,-9.70993 -8.8942,-13.4828"
       id="path7-9-9-0"
       sodipodi:nodetypes="cc" /><path
       id="path14-4-2"
       style="fill:none;fill-opacity:1;stroke:#012226;stroke-width:1.31717;stroke-linecap:round;stroke-dasharray:none;stroke-opacity:1"
       d="m 107.56077,202.56704 c 5.46592,-0.98799 11.05586,-1.33815 16.85562,0"
       sodipodi:nodetypes="cc" /><path
       id="path29"
       style="font-variation-settings:normal;opacity:1;vector-effect:none;fill:#ffffff;fill-opacity:1;stroke:#012226;stroke-width:2.77678;stroke-linecap:round;stroke-linejoin:miter;stroke-miterlimit:4;stroke-dasharray:none;stroke-dashoffset:0;stroke-opacity:1;-inkscape-stroke:none;paint-order:markers stroke fill;stop-color:#000000;stop-opacity:1"
       d="m 91.759841,183.25083 c -0.564782,7.5e-4 -1.100407,0.24254 -1.463595,0.6607 -0.222647,-0.0904 -0.460173,-0.1369 -0.699916,-0.13705 -1.044128,0 -1.890547,0.86053 -1.890508,1.92202 -3.9e-5,1.06149 0.84638,1.92262 1.890508,1.92202 l 5.257069,-0.003 c 0.269865,-1.5e-4 1.734657,-0.10124 1.738429,-1.4683 1.91e-4,-0.81356 -0.752768,-1.47315 -1.681632,-1.47312 -0.471888,9.7e-4 -0.921597,0.17556 -1.239328,0.48114 0.0093,-0.10619 0.135865,-1.90441 -1.911027,-1.90441 z"
       sodipodi:nodetypes="ccccsscccc" /><path
       style="font-variation-settings:normal;opacity:1;fill:none;fill-opacity:1;stroke:#ffffff;stroke-width:1.20741;stroke-linecap:round;stroke-linejoin:miter;stroke-miterlimit:4;stroke-dasharray:none;stroke-dashoffset:0;stroke-opacity:1;paint-order:markers stroke fill"
       d="m 104.47839,204.25138 c -6.388982,3.35403 -17.508418,-2.26799 -24.063426,0.13317 m 24.063426,-0.13317 c -6.388982,3.35403 -17.508418,-2.26799 -24.063426,0.13317"
       id="path30"
       sodipodi:nodetypes="cc" /><path
       style="font-variation-settings:normal;fill:none;fill-opacity:1;stroke:#ffffff;stroke-width:1.23062;stroke-linecap:round;stroke-linejoin:miter;stroke-miterlimit:4;stroke-dasharray:none;stroke-dashoffset:0;stroke-opacity:1;paint-order:markers stroke fill"
       d="m 100.81069,208.16888 c -4.980693,3.51383 -13.649138,-2.37604 -18.759265,0.13953 m 18.759265,-0.13953 c -4.980693,3.51383 -13.649138,-2.37604 -18.759265,0.13953"
       id="path30-0"
       sodipodi:nodetypes="cc" /><path
       style="fill:none;fill-opacity:1;stroke:#012226;stroke-width:1.31717;stroke-linecap:round;stroke-dasharray:none;stroke-opacity:1"
       d="m 74.875373,167.134 c 1.388971,5.7144 4.859068,9.92526 8.894199,13.48281"
       id="path7-0"
       sodipodi:nodetypes="cc" /><path
       id="path19-8"
       style="fill:none;fill-opacity:1;stroke:#012226;stroke-width:1.31717;stroke-linecap:round;stroke-dasharray:none;stroke-opacity:1"
       d="m 59.889079,188.23956 c 4.658989,-0.60634 10.193551,-0.73012 16.856332,0"
       sodipodi:nodetypes="cc" /><path
       id="path19-8-5"
       style="fill:none;fill-opacity:1;stroke:#012226;stroke-width:1.31717;stroke-linecap:round;stroke-dasharray:none;stroke-opacity:1"
       d="m 124.4171,188.23956 c -4.65899,-0.60634 -10.19354,-0.73012 -16.85633,0"
       sodipodi:nodetypes="cc" /><path
       id="path6-2"
       style="fill:none;fill-opacity:1;stroke:#012226;stroke-width:1.31717;stroke-linecap:round;stroke-dasharray:none;stroke-opacity:1"
       d="m 92.148825,162.27421 a 33.128786,33.128786 0 0 0 -33.128675,33.1294 33.128786,33.128786 0 0 0 33.128675,33.12867 33.128786,33.128786 0 0 0 33.128675,-33.12867 33.128786,33.128786 0 0 0 -33.128675,-33.1294 z m 0,16.13379 A 16.995523,16.995523 0 0 1 109.14443,195.40361 16.995523,16.995523 0 0 1 92.148825,212.3985 16.995523,16.995523 0 0 1 75.153219,195.40361 16.995523,16.995523 0 0 1 92.148825,178.408 Z" /></g></svg>
