<?xml version="1.0" encoding="UTF-8" standalone="no"?>
<!-- Created with Inkscape (http://www.inkscape.org/) -->

<svg
   width="23mm"
   height="23mm"
   viewBox="0 0 23 23"
   version="1.1"
   id="svg1"
   sodipodi:docname="nuvemCinza.svg"
   inkscape:version="1.3 (0e150ed6c4, 2023-07-21)"
   xmlns:inkscape="http://www.inkscape.org/namespaces/inkscape"
   xmlns:sodipodi="http://sodipodi.sourceforge.net/DTD/sodipodi-0.dtd"
   xmlns="http://www.w3.org/2000/svg"
   xmlns:svg="http://www.w3.org/2000/svg">
  <sodipodi:namedview
     id="namedview1"
     pagecolor="#ffffff"
     bordercolor="#000000"
     borderopacity="0.25"
     inkscape:showpageshadow="2"
     inkscape:pageopacity="0.0"
     inkscape:pagecheckerboard="0"
     inkscape:deskcolor="#d1d1d1"
     inkscape:document-units="mm"
     inkscape:zoom="5.8439955"
     inkscape:cx="29.517477"
     inkscape:cy="54.757058"
     inkscape:window-width="1920"
     inkscape:window-height="1009"
     inkscape:window-x="-8"
     inkscape:window-y="-8"
     inkscape:window-maximized="1"
     inkscape:current-layer="layer1" />
  <defs
     id="defs1" />
  <g
     inkscape:label="Camada 1"
     inkscape:groupmode="layer"
     id="layer1"
     transform="translate(-156.9249,-139.99156)">
    <path
       id="path23"
       style="color:#000000;fill:#cccccc;fill-opacity:1;stroke-linejoin:bevel;-inkscape-stroke:none"
       d="m 168.22117,142.58634 c -1.89733,-0.0552 -3.36739,1.0035 -3.58368,3.46869 -1.899,-0.23715 -2.5477,0.1759 -3.4105,1.1467 -0.93069,1.04723 -1.1952,2.63253 -1.07849,4.54442 l 0.41651,0.38499 15.52718,-0.38499 0.39843,-0.40256 c 0.008,-0.51336 0.13736,-1.20453 0.20154,-1.91203 0.0642,-0.70749 0.0725,-1.4495 -0.26407,-2.09754 -0.33654,-0.64805 -1.04089,-1.11754 -2.12287,-1.23455 -0.98585,-0.10661 -0.90651,0.0797 -2.74568,0.54519 -0.37586,-2.7633 -1.43576,-4.00295 -3.33837,-4.05832 z m 2.25627,10.20523 -5.1077,0.0935 -0.33383,0.18345 -2.04484,3.08819 0.33177,0.63252 3.21324,0.0646 -2.38694,2.9161 0.48835,0.6289 7.04711,-3.24011 0.0367,-0.72502 -2.77916,-1.62677 1.78129,-1.27538 z"
       sodipodi:nodetypes="ccccccccccccccccccccccccc" />
  </g>
</svg>
