<?xml version="1.0" encoding="UTF-8" standalone="no"?>
<!-- Created with Inkscape (http://www.inkscape.org/) -->

<svg
   width="506.46729mm"
   height="14.579057mm"
   viewBox="0 0 506.46728 14.579057"
   version="1.1"
   id="svg1"
   inkscape:version="1.3 (0e150ed6c4, 2023-07-21)"
   sodipodi:docname="rio.svg"
   xmlns:inkscape="http://www.inkscape.org/namespaces/inkscape"
   xmlns:sodipodi="http://sodipodi.sourceforge.net/DTD/sodipodi-0.dtd"
   xmlns="http://www.w3.org/2000/svg"
   xmlns:svg="http://www.w3.org/2000/svg">
  <sodipodi:namedview
     id="namedview1"
     pagecolor="#ffffff"
     bordercolor="#000000"
     borderopacity="0.25"
     inkscape:showpageshadow="2"
     inkscape:pageopacity="0.0"
     inkscape:pagecheckerboard="0"
     inkscape:deskcolor="#d1d1d1"
     inkscape:document-units="mm"
     inkscape:zoom="0.25"
     inkscape:cx="470"
     inkscape:cy="-304"
     inkscape:window-width="1920"
     inkscape:window-height="1009"
     inkscape:window-x="-8"
     inkscape:window-y="-8"
     inkscape:window-maximized="1"
     inkscape:current-layer="layer1" />
  <defs
     id="defs1" />
  <g
     inkscape:label="Camada 1"
     inkscape:groupmode="layer"
     id="layer1"
     transform="translate(-11.641685,-144.99251)">
    <path
       id="path27-7"
       style="fill:#55bdff;fill-opacity:1;stroke-width:0.279794"
       d="m 169.09306,144.99364 c -0.32871,-0.006 -0.66149,0.0128 -0.99374,0.0367 -0.0762,0.005 -0.15117,-0.002 -0.22738,0.005 -0.45722,0.0399 -0.87992,0.102 -1.28519,0.19017 -0.22566,0.0475 -0.44347,0.12757 -0.65991,0.1943 -0.17283,0.0534 -0.35094,0.0953 -0.52193,0.16123 -0.14114,0.0555 -0.29873,0.13956 -0.44338,0.20619 -0.27547,0.12451 -0.55667,0.25663 -0.84336,0.41962 -0.13527,0.0772 -0.3037,0.18878 -0.44752,0.27647 -0.20181,0.12509 -0.39231,0.22948 -0.60668,0.37517 -0.16606,0.11286 -0.20204,0.13183 -0.34934,0.23151 -0.0636,0.0425 -0.10855,0.0663 -0.17415,0.11058 -0.76182,0.51487 -1.6135,1.06294 -2.0438,1.3224 -0.10853,0.0637 -0.21967,0.12203 -0.32194,0.17829 -0.47762,0.27058 -0.97552,0.50782 -1.48777,0.71933 -0.12131,0.0514 -0.24469,0.10818 -0.36535,0.15555 -1.2251,0.4647 -2.54064,0.75565 -3.91604,0.88315 -0.33298,0.0256 -0.6885,0.0365 -1.04696,0.045 -0.31252,0.009 -0.62586,0.0146 -0.94362,0.007 -0.3509,-0.007 -0.6956,-0.0191 -1.02577,-0.0434 -0.30097,-0.0234 -0.57554,-0.0591 -0.84336,-0.0935 -0.30222,-0.0388 -0.60893,-0.071 -0.90021,-0.12764 -0.50549,-0.10046 -1.00962,-0.22898 -1.58543,-0.41031 -0.42691,-0.13896 -0.85277,-0.30421 -1.28416,-0.48989 -0.12535,-0.0564 -0.25637,-0.12153 -0.3855,-0.185 -0.18294,-0.0857 -0.38749,-0.19891 -0.58085,-0.30334 -0.57933,-0.31652 -1.24768,-0.73379 -2.019,-1.24282 -0.22679,-0.15029 -0.34438,-0.21659 -0.61391,-0.39843 -1.15122,-0.81586 -2.36198,-1.5294 -3.72742,-1.91357 -1.65592,-0.42873 -3.67158,-0.3953 -5.32629,0.0403 0,0 3e-5,-0.005 0,-0.005 -0.003,0 -0.0297,0.0129 -0.0326,0.0134 -0.36613,0.0978 -0.72086,0.20906 -1.04231,0.34675 -0.69408,0.29728 -1.08913,0.53757 -3.00499,1.82366 -2.05302,1.37821 -3.51621,2.11646 -5.19038,2.54765 -0.0127,0.004 -0.0259,0.006 -0.0388,0.0103 -0.55563,0.14132 -1.13388,0.24957 -1.76631,0.3359 -0.69443,0.0947 -1.81807,0.12346 -2.8391,0.10025 -0.60434,-0.0172 -1.17832,-0.0484 -1.55908,-0.10439 -2.61579,-0.38438 -4.22223,-1.05137 -6.96288,-2.89181 -1.91427,-1.28551 -2.42674,-1.59122 -3.1595,-1.88309 -0.93245,-0.37139 -2.01367,-0.5795 -3.13572,-0.6258 -0.0312,-0.003 -0.0616,-0.004 -0.093,-0.005 -0.0534,-0.003 -0.10558,-0.009 -0.15916,-0.0103 -0.28361,-0.005 -0.57036,0.0143 -0.8568,0.031 -0.1505,0.007 -0.2989,-0.004 -0.44958,0.0103 -1.79605,0.15684 -3.06271,0.63682 -4.807462,1.82263 -2.113751,1.43653 -2.629054,1.75735 -3.553271,2.21071 -1.051057,0.51557 -2.038967,0.87264 -3.088184,1.1064 -0.0805,0.0177 -0.163826,0.0294 -0.244946,0.046 -0.476827,0.0966 -0.961739,0.17626 -1.479496,0.22479 -0.005,0 -0.01019,4.1e-4 -0.01499,0.003 -0.585,0.0543 -1.20334,0.0796 -1.872237,0.0796 -0.54975,-5e-5 -1.06517,-0.0241 -1.56528,-0.0651 -0.0631,-0.005 -0.132436,-0.0105 -0.193786,-0.0165 -0.43209,-0.0406 -0.845733,-0.10364 -1.25367,-0.17828 -0.22241,-0.043 -0.44488,-0.0924 -0.671277,-0.14934 -0.0778,-0.0185 -0.155104,-0.0401 -0.232544,-0.0599 -0.2712,-0.0729 -0.546851,-0.15219 -0.849561,-0.24908 -1.302197,-0.41685 -2.461423,-1.03371 -4.467427,-2.37815 -1.879334,-1.25955 -2.810259,-1.75801 -3.804936,-2.05104 -0.0143,-0.004 -0.0958,-0.0429 -0.102836,-0.0429 -5e-5,0 3e-5,0.009 0,0.009 -0.0454,-0.0127 -0.09,-0.0314 -0.135909,-0.0434 -2.034264,-0.52671 -4.620732,-0.36735 -6.400126,0.39481 -0.69406,0.29731 -1.089668,0.53758 -3.005502,1.82366 -2.748591,1.84513 -4.439874,2.54438 -6.995955,2.89336 -1.120027,0.15288 -3.392977,0.15317 -4.470011,-0.003 -2.603334,-0.37157 -4.216954,-1.04735 -7.075538,-2.96261 -0.942887,-0.63175 -1.929611,-1.26937 -2.192631,-1.41645 -1.442664,-0.80679 -3.462097,-1.17528 -5.476151,-0.99943 -1.796054,0.15682 -3.063221,0.63734 -4.807975,1.82315 -2.113764,1.43655 -2.629055,1.75733 -3.553272,2.21072 -2.142144,1.05079 -4.016448,1.45855 -6.699849,1.45831 -2.363114,-2.1e-4 -4.189525,-0.36402 -6.148979,-1.22474 -0.884557,-0.38852 -1.638912,-0.84061 -3.485059,-2.08617 -0.799947,-0.53969 -1.699484,-1.10446 -1.998844,-1.25522 -0.473317,-0.23839 -1.405295,-0.62322 -1.508435,-0.62322 -0.0194,0 -0.03514,2.47881 -0.03514,5.50922 v 0.40618 0.95188 7.36493 H 518.10896 v -8.31681 h -0.003 c 8.2e-4,-0.13995 0.003,-0.18047 0.003,-0.40101 0,-3.03328 -0.0165,-5.51491 -0.0357,-5.51491 -0.10297,0 -1.03613,0.38559 -1.51929,0.62787 -0.30534,0.15312 -1.20437,0.71775 -1.99833,1.2547 -1.70604,1.15385 -2.0895,1.38874 -3.07216,1.87896 -1.37147,0.68416 -2.97733,1.14832 -4.6638,1.34927 -1.05796,0.12605 -3.23612,0.10631 -4.2199,-0.0382 -2.61583,-0.38438 -4.22171,-1.05137 -6.96236,-2.89181 -1.91426,-1.2855 -2.4273,-1.59123 -3.16002,-1.88309 -1.00247,-0.39927 -2.17424,-0.61893 -3.38687,-0.64131 h -5.2e-4 c -0.4041,-0.008 -0.81334,0.007 -1.22163,0.045 -1.97087,0.17815 -3.03451,0.60968 -5.33094,2.16163 -0.81365,0.54989 -1.79599,1.18519 -2.18281,1.41231 -2.44312,1.43449 -5.38077,2.08866 -8.5416,1.90221 -1.5292,-0.0902 -2.4721,-0.26218 -3.85661,-0.70538 -1.30218,-0.41683 -2.46142,-1.03422 -4.46743,-2.37867 -2.02929,-1.36007 -2.95037,-1.84522 -4.04265,-2.12803 -1.65592,-0.42873 -3.67158,-0.39529 -5.32629,0.0403 0,0 3e-5,-0.005 0,-0.005 -0.003,0 -0.0297,0.0129 -0.0325,0.0134 -0.36613,0.0978 -0.72087,0.20906 -1.04232,0.34675 -0.69408,0.29728 -1.08913,0.53759 -3.00498,1.82366 -2.05304,1.37821 -3.51621,2.11646 -5.19038,2.54765 -0.0127,0.004 -0.0259,0.006 -0.0388,0.0103 -0.55562,0.14132 -1.13387,0.24957 -1.7663,0.3359 -0.69445,0.0947 -1.81807,0.12346 -2.8391,0.10025 -0.60434,-0.0172 -1.17832,-0.0484 -1.55908,-0.10439 -2.6158,-0.38438 -4.22223,-1.05137 -6.96288,-2.89181 -1.91426,-1.28551 -2.42674,-1.59122 -3.1595,-1.88309 -0.93247,-0.37139 -2.01368,-0.5795 -3.13573,-0.6258 -0.0312,-0.003 -0.0616,-0.004 -0.093,-0.005 -0.0534,-0.003 -0.10559,-0.009 -0.15917,-0.0103 -0.28361,-0.005 -0.57035,0.0143 -0.85679,0.031 -0.1505,0.007 -0.29891,-0.004 -0.44959,0.0103 -1.79605,0.15684 -3.0627,0.63681 -4.80746,1.82262 -2.11375,1.43655 -2.62905,1.75736 -3.55327,2.21072 -1.05106,0.51557 -2.03897,0.87263 -3.08818,1.10639 -0.0805,0.0177 -0.16383,0.0294 -0.24495,0.046 -0.47683,0.0966 -0.96173,0.17626 -1.47949,0.22479 -0.005,0 -0.0102,4.1e-4 -0.015,0.003 -0.585,0.0543 -1.20334,0.0796 -1.87224,0.0796 -0.54975,-5e-5 -1.06517,-0.0241 -1.56528,-0.0651 -0.0631,-0.005 -0.13243,-0.0105 -0.19378,-0.0165 -0.43209,-0.0406 -0.84573,-0.10364 -1.25367,-0.17828 -0.22241,-0.043 -0.44488,-0.0924 -0.67128,-0.14935 -0.0778,-0.0185 -0.1551,-0.0399 -0.23254,-0.0599 -0.2712,-0.0729 -0.54685,-0.15219 -0.84956,-0.24908 -1.3022,-0.41685 -2.46142,-1.03371 -4.46743,-2.37815 -1.87933,-1.25955 -2.81026,-1.75801 -3.80494,-2.05104 -0.0143,-0.004 -0.0958,-0.0429 -0.10283,-0.0429 -5e-5,0 3e-5,0.009 0,0.009 -0.0454,-0.0127 -0.09,-0.0314 -0.13591,-0.0434 -1.69077,-0.43778 -3.73778,-0.37655 -5.41104,0.0858 -1.8e-4,-4.6e-4 -3.4e-4,-0.0527 -5.2e-4,-0.0527 -0.0359,0 -0.34646,0.14766 -0.5302,0.2191 -0.14846,0.0522 -0.31913,0.0835 -0.45837,0.14315 -0.1471,0.063 -0.30527,0.16105 -0.44287,0.22944 -0.0307,0.0149 -0.0604,0.0222 -0.0884,0.0362 -0.0128,0.006 -0.0689,0.0444 -0.0837,0.0522 -0.47711,0.25352 -1.03839,0.59781 -2.39107,1.50585 -1.35229,0.90779 -2.44724,1.53347 -3.51658,1.98127 -0.0274,0.011 -0.0526,0.0243 -0.0801,0.0351 -0.44479,0.18278 -0.89073,0.31991 -1.34462,0.447 -0.23263,0.065 -0.47121,0.11939 -0.71003,0.17364 -0.32125,0.0712 -0.65172,0.13637 -0.99787,0.19017 -0.14806,0.0235 -0.29438,0.0514 -0.4439,0.0708 -0.43521,0.0545 -1.0573,0.0724 -1.6769,0.0842 -0.1973,0.003 -0.33825,0.0223 -0.54054,0.0212 -0.61041,-0.002 -1.12338,-0.0422 -1.60765,-0.0848 -0.17031,-0.0149 -0.42862,-0.013 -0.56121,-0.0325 -1.15412,-0.16959 -2.10637,-0.41592 -3.05149,-0.77205 -1.20699,-0.45933 -2.41695,-1.11919 -4.01061,-2.18695 -0.29041,-0.19457 -0.39911,-0.25495 -0.67541,-0.43614 -0.4624,-0.3043 -0.98796,-0.65391 -1.27848,-0.82579 -0.0448,-0.027 -0.21009,-0.1385 -0.23874,-0.15452 -0.17972,-0.1005 -0.3921,-0.17324 -0.5886,-0.25993 -0.0863,-0.038 -0.18914,-0.10371 -0.27905,-0.13952 -0.0331,-0.0132 -0.073,-0.0177 -0.10645,-0.0305 -0.42982,-0.16136 -0.88462,-0.2932 -1.36581,-0.39068 -0.058,-0.0119 -0.10939,-0.0325 -0.16795,-0.0434 -0.52096,-0.096 -1.06505,-0.14616 -1.61799,-0.16381 -0.0439,-0.001 -0.0846,-0.0121 -0.12867,-0.0129 l -5.2e-4,-0.002 c -0.32871,-0.006 -0.66149,0.0128 -0.99374,0.0367 -0.0762,0.005 -0.15116,-0.002 -0.22737,0.005 -0.45722,0.0399 -0.87993,0.102 -1.2852,0.19017 -0.22566,0.0475 -0.44346,0.12758 -0.6599,0.19431 -0.17283,0.0534 -0.35095,0.0953 -0.52194,0.16123 -0.14114,0.0555 -0.29873,0.13956 -0.44338,0.20619 -0.27547,0.12451 -0.55667,0.25662 -0.84336,0.41961 -0.13527,0.0772 -0.3037,0.18878 -0.44752,0.27647 -0.20181,0.1251 -0.39231,0.22948 -0.60668,0.37517 -0.16606,0.11286 -0.20203,0.13183 -0.34933,0.23151 -0.0636,0.0425 -0.10855,0.0663 -0.17415,0.11059 -0.76184,0.51487 -1.6135,1.06294 -2.0438,1.3224 -0.10853,0.0637 -0.21968,0.12202 -0.32195,0.17828 -0.47762,0.27058 -0.97551,0.50783 -1.48776,0.71934 -0.12131,0.0514 -0.2447,0.10817 -0.36536,0.15554 -1.22509,0.4647 -2.54064,0.75565 -3.91604,0.88315 -0.33297,0.0256 -0.6885,0.037 -1.04696,0.0455 -0.31252,0.009 -0.62585,0.0146 -0.94361,0.007 -0.3509,-0.007 -0.69561,-0.0191 -1.02578,-0.0434 -0.30097,-0.0234 -0.57554,-0.0591 -0.84336,-0.0935 -0.30222,-0.0388 -0.60892,-0.071 -0.9002,-0.12764 -0.50549,-0.10046 -1.00962,-0.22898 -1.58543,-0.41031 -0.42691,-0.13896 -0.85277,-0.30421 -1.28416,-0.48989 -0.12535,-0.0564 -0.25638,-0.12153 -0.38551,-0.185 -0.18294,-0.0857 -0.38748,-0.19891 -0.58084,-0.30334 -0.57933,-0.31652 -1.24769,-0.73379 -2.019,-1.24282 -0.22679,-0.15029 -0.34439,-0.21659 -0.61392,-0.39843 -1.15122,-0.81586 -2.36198,-1.5294 -3.72742,-1.91357 -1.65592,-0.42873 -3.67158,-0.3953 -5.32629,0.0403 0,0 3e-5,-0.005 0,-0.005 -0.003,0 -0.0297,0.0129 -0.0326,0.0134 -0.009,0.002 -0.0168,0.006 -0.0258,0.009 -7e-5,-8e-5 8e-5,-0.0222 0,-0.0222 -0.0185,0 -0.20852,0.0913 -0.27337,0.11317 -0.25506,0.076 -0.51396,0.14886 -0.74311,0.24702 -0.69408,0.29728 -1.08912,0.53757 -3.00498,1.82366 -1.97581,1.32637 -3.40889,2.04075 -5.0059,2.4784 -0.67049,0.18282 -1.36452,0.32662 -2.07739,0.41858 -0.66582,0.0838 -1.67255,0.1096 -2.62361,0.0925 -0.54202,-0.0125 -1.03511,-0.0395 -1.43041,-0.0827 -0.0723,-0.008 -0.19371,-0.008 -0.25631,-0.0171 -2.6158,-0.38438 -4.22224,-1.05137 -6.96288,-2.89181 -1.91427,-1.28551 -2.42675,-1.59122 -3.1595,-1.88309 -0.50402,-0.20074 -1.05548,-0.34505 -1.62936,-0.45062 -0.17189,-0.0333 -0.35542,-0.0374 -0.53175,-0.062 -0.32351,-0.0424 -0.64106,-0.0994 -0.97462,-0.11317 -0.0312,-0.003 -0.0616,-0.004 -0.093,-0.005 -0.0534,-0.003 -0.10558,-0.009 -0.15916,-0.0103 -0.0115,-2e-4 -0.0232,0.001 -0.0346,0.001 -0.008,-1.6e-4 -0.015,-0.002 -0.0227,-0.002 h -5.2e-4 c -0.32734,-0.006 -0.65875,0.0125 -0.9896,0.0362 -0.0861,-2.8e-4 -0.17213,-0.002 -0.2589,0.006 -0.46202,0.0403 -0.88798,0.10468 -1.29708,0.1943 -0.068,0.0146 -0.13259,0.0426 -0.19947,0.0589 -0.34296,0.0842 -0.68106,0.18254 -1.01286,0.31265 -0.0124,0.005 -0.0264,0.013 -0.0387,0.0181 -0.7175,0.28553 -1.43455,0.67815 -2.2593,1.23869 -1.96651,1.33646 -2.48985,1.64649 -3.30574,2.05672 -0.27949,0.14483 -0.56091,0.28588 -0.85163,0.41134 -0.2158,0.0952 -0.43293,0.1937 -0.64647,0.27595 -1.20544,0.44816 -2.49386,0.73466 -3.84317,0.85835 -0.31539,0.0245 -0.65463,0.0334 -0.99271,0.0424 -0.34882,0.0111 -0.69886,0.0178 -1.0542,0.008 -0.30487,-0.007 -0.60769,-0.0171 -0.8971,-0.0377 -0.39535,-0.0296 -0.75505,-0.0726 -1.09709,-0.12144 -0.19166,-0.0284 -0.38974,-0.0483 -0.57774,-0.0827 -0.0791,-0.0153 -0.15945,-0.0363 -0.23875,-0.0532 -0.35779,-0.0745 -0.73519,-0.17641 -1.12241,-0.29042 -0.13043,-0.0383 -0.2525,-0.0695 -0.39223,-0.1142 -1.30219,-0.41685 -2.46142,-1.03371 -4.46742,-2.37815 -1.87933,-1.25955 -2.81026,-1.75853 -3.80494,-2.05156 -0.0143,-0.004 -0.0958,-0.0429 -0.10284,-0.0429 -5e-5,0 3e-5,0.009 0,0.009 -0.0454,-0.0127 -0.09,-0.0314 -0.1359,-0.0434 -0.18228,-0.0472 -0.38603,-0.0599 -0.5762,-0.0961 -0.29078,-0.057 -0.57889,-0.11558 -0.88263,-0.14676 -0.19656,-0.0195 -0.39225,-0.0204 -0.59169,-0.0295 -0.33446,-0.0162 -0.66505,-0.0238 -1.00098,-0.0109 -0.18068,0.007 -0.35381,0.0211 -0.53278,0.0367 -0.37397,0.0316 -0.73498,0.082 -1.09296,0.14883 -0.12914,0.0246 -0.25659,0.0447 -0.3824,0.0739 -0.10593,0.024 -0.22072,0.0353 -0.32401,0.0625 0,0 3e-5,-0.005 0,-0.005 -0.003,0 -0.0298,0.0129 -0.0326,0.0134 -0.36613,0.0978 -0.72086,0.20906 -1.04231,0.34675 -0.69408,0.29728 -1.08913,0.53758 -3.00499,1.82366 -1.02152,0.68575 -1.89575,1.21121 -2.72386,1.62109 -0.008,0.004 -0.0166,0.008 -0.0248,0.0119 -0.82742,0.40775 -1.60849,0.70007 -2.44171,0.91467 -0.0127,0.004 -0.0259,0.006 -0.0388,0.0103 -0.55562,0.14131 -1.13387,0.24956 -1.7663,0.33589 -0.64022,0.0873 -1.66433,0.10633 -2.61741,0.0925 -0.59233,-0.0108 -1.16028,-0.0331 -1.58336,-0.0832 -0.0541,-0.006 -0.1492,-0.006 -0.19741,-0.0134 -2.6158,-0.38438 -4.22223,-1.05138 -6.96288,-2.89182 -1.07806,-0.72395 -1.68768,-1.11098 -2.16628,-1.38596 -0.0252,-0.0149 -0.13507,-0.0889 -0.15348,-0.0992 -0.11585,-0.0648 -0.25632,-0.10836 -0.3793,-0.16743 -0.1438,-0.0683 -0.31205,-0.17137 -0.46044,-0.23047 -0.056,-0.0223 -0.12276,-0.0311 -0.17983,-0.0522 -0.29122,-0.10719 -0.60206,-0.18827 -0.91778,-0.26665 -0.16524,-0.0405 -0.31893,-0.0945 -0.48937,-0.12661 -0.52904,-0.10213 -1.07829,-0.16471 -1.64176,-0.18551 -3.4e-4,-2e-5 -7.2e-4,2e-5 -0.001,0 -0.053,-0.003 -0.1049,-0.009 -0.15813,-0.0103 -0.28361,-0.005 -0.57035,0.0143 -0.85679,0.031 -0.0946,0.004 -0.18862,0.006 -0.28267,0.007 -0.0365,0.003 -0.0725,-9.3e-4 -0.10904,0.002 -5.7e-4,5e-5 -0.001,4.7e-4 -0.002,5.2e-4 -0.0188,0.001 -0.037,-10e-4 -0.0558,5.1e-4 -1.79604,0.15684 -3.0627,0.63682 -4.80745,1.82263 -2.11376,1.43655 -2.62906,1.75736 -3.55328,2.21072 -1.05105,0.51557 -2.03896,0.87263 -3.08818,1.10639 -0.0805,0.0177 -0.16383,0.0294 -0.24495,0.046 -0.47682,0.0966 -0.96174,0.17626 -1.47949,0.22479 -0.004,0 -0.008,0.001 -0.0124,0.003 -0.56977,0.051 -1.1682,0.0776 -1.81746,0.0775 -1.17186,-1.1e-4 -2.21076,-0.0911 -3.20033,-0.28629 -0.0267,-0.005 -0.0538,-0.0124 -0.0806,-0.0181 -0.40926,-0.0833 -0.80914,-0.19216 -1.20768,-0.31316 -0.0953,-0.0283 -0.18402,-0.0515 -0.28422,-0.0832 -0.0485,-0.0159 -0.0973,-0.0394 -0.14573,-0.0558 -0.60151,-0.19811 -1.17965,-0.43827 -1.82883,-0.78083 -0.0298,-0.0152 -0.0629,-0.0329 -0.093,-0.0486 -0.69338,-0.37164 -1.46638,-0.84836 -2.4505,-1.50792 -0.0852,-0.0571 -0.12122,-0.0716 -0.20257,-0.12557 -0.0594,-0.0399 -0.0788,-0.0498 -0.14056,-0.0915 -0.79995,-0.53969 -1.69949,-1.10446 -1.99885,-1.25522 -1.02992,-0.51873 -3.6524,-1.52609 -7.11274,-0.57051 -1.31491,0.21617 -2.80137,1.34556 -3.99459,2.13321 -1.35229,0.90778 -2.44724,1.53347 -3.51658,1.98127 -0.0274,0.011 -0.0526,0.0243 -0.0801,0.0351 -0.44479,0.18278 -0.89073,0.31991 -1.34462,0.447 -0.23263,0.065 -0.47121,0.11938 -0.71003,0.17363 -0.32126,0.0712 -0.65173,0.13637 -0.99787,0.19017 -0.14806,0.0235 -0.29439,0.0514 -0.44391,0.0708 -0.4352,0.0545 -1.05729,0.0724 -1.6769,0.0842 -0.1973,0.003 -0.33824,0.0223 -0.54053,0.0212 -0.61041,-0.002 -1.12339,-0.0422 -1.60765,-0.0848 -0.17031,-0.0149 -0.42862,-0.0131 -0.56121,-0.0326 -1.15412,-0.16959 -2.10638,-0.41591 -3.05149,-0.77204 -1.20699,-0.45933 -2.41694,-1.11919 -4.01061,-2.18695 -0.2904,-0.19458 -0.39911,-0.25496 -0.67541,-0.43615 -0.46241,-0.3043 -0.98796,-0.65391 -1.27848,-0.82579 -0.0448,-0.027 -0.21009,-0.13849 -0.23874,-0.15451 -0.17972,-0.1005 -0.3921,-0.17324 -0.5886,-0.25993 -0.0863,-0.038 -0.18914,-0.10372 -0.27905,-0.13953 -0.0331,-0.0132 -0.073,-0.0177 -0.10645,-0.0305 -0.42982,-0.16136 -0.88462,-0.29319 -1.36581,-0.39067 -0.058,-0.0119 -0.10939,-0.0325 -0.16795,-0.0434 -0.52096,-0.096 -1.06505,-0.14616 -1.61799,-0.16381 -0.0439,-0.001 -0.0846,-0.0121 -0.12867,-0.0129 z" />
  </g>
</svg>
