<?xml version="1.0" encoding="UTF-8" standalone="no"?>
<!-- Created with Inkscape (http://www.inkscape.org/) -->

<svg
   width="186.47047mm"
   height="7.213387mm"
   viewBox="0 0 186.47047 7.213387"
   version="1.1"
   id="svg1"
   inkscape:version="1.3 (0e150ed6c4, 2023-07-21)"
   sodipodi:docname="rio.svg"
   xmlns:inkscape="http://www.inkscape.org/namespaces/inkscape"
   xmlns:sodipodi="http://sodipodi.sourceforge.net/DTD/sodipodi-0.dtd"
   xmlns="http://www.w3.org/2000/svg"
   xmlns:svg="http://www.w3.org/2000/svg">
  <sodipodi:namedview
     id="namedview1"
     pagecolor="#ffffff"
     bordercolor="#000000"
     borderopacity="0.25"
     inkscape:showpageshadow="2"
     inkscape:pageopacity="0.0"
     inkscape:pagecheckerboard="0"
     inkscape:deskcolor="#d1d1d1"
     inkscape:document-units="mm"
     inkscape:zoom="0.66457632"
     inkscape:cx="352.85639"
     inkscape:cy="13.542463"
     inkscape:window-width="1920"
     inkscape:window-height="974"
     inkscape:window-x="-11"
     inkscape:window-y="-11"
     inkscape:window-maximized="1"
     inkscape:current-layer="layer1" />
  <defs
     id="defs1" />
  <g
     inkscape:label="Camada 1"
     inkscape:groupmode="layer"
     id="layer1"
     transform="translate(-11.64167,-144.99167)">
    <path
       id="path27-7"
       style="fill:#55bdff;fill-opacity:1;stroke-width:0.279794"
       d="m 169.0936,144.99376 c -0.40426,-0.008 -0.81369,0.007 -1.22215,0.045 -1.97088,0.17815 -3.0345,0.60967 -5.33094,2.16162 -0.81365,0.54989 -1.796,1.1852 -2.18282,1.41232 -2.44313,1.43449 -5.38075,2.08866 -8.54159,1.90221 -1.52921,-0.0902 -2.47211,-0.26218 -3.85662,-0.70538 -1.30219,-0.41683 -2.4614,-1.03422 -4.46742,-2.37867 -2.0293,-1.36009 -2.95037,-1.84522 -4.04265,-2.12803 -1.65592,-0.42873 -3.67158,-0.39532 -5.32629,0.0403 0,0 3e-5,-0.005 0,-0.005 -0.003,0 -0.0297,0.0129 -0.0326,0.0134 -0.36613,0.0978 -0.72086,0.20906 -1.04231,0.34675 -0.69408,0.29728 -1.08912,0.53757 -3.00498,1.82366 -2.05304,1.37821 -3.51621,2.11646 -5.19038,2.54765 -0.0127,0.004 -0.0259,0.006 -0.0388,0.01 -0.55563,0.14132 -1.13387,0.24957 -1.7663,0.3359 -0.69445,0.0947 -1.81808,0.12346 -2.83911,0.10025 -0.60434,-0.0172 -1.17831,-0.0484 -1.55907,-0.10439 -2.61581,-0.38438 -4.22223,-1.05137 -6.96289,-2.89181 -1.91427,-1.28551 -2.42673,-1.59122 -3.15949,-1.88309 -0.93247,-0.37139 -2.01368,-0.5795 -3.13573,-0.6258 -0.0312,-0.003 -0.0616,-0.004 -0.093,-0.005 -0.0534,-0.003 -0.10558,-0.009 -0.15916,-0.0103 -0.28361,-0.005 -0.57036,0.0143 -0.8568,0.031 -0.1505,0.007 -0.2989,-0.004 -0.44958,0.0103 -1.79605,0.15684 -3.0627,0.63682 -4.80746,1.82263 -2.11376,1.43656 -2.62905,1.75736 -3.55327,2.21072 -1.05106,0.51557 -2.03896,0.87263 -3.08818,1.10639 -0.0805,0.0177 -0.16383,0.0294 -0.24495,0.046 -0.47683,0.0966 -0.96174,0.17626 -1.4795,0.22479 -0.005,0 -0.0102,1.1e-4 -0.015,0.003 -0.585,0.0543 -1.20334,0.0796 -1.87224,0.0796 -0.54975,-5e-5 -1.06517,-0.0241 -1.56528,-0.0651 -0.0631,-0.005 -0.13244,-0.0105 -0.19379,-0.0165 -0.43209,-0.0406 -0.84573,-0.10365 -1.25367,-0.17829 -0.22241,-0.043 -0.44487,-0.0924 -0.67127,-0.14934 -0.0778,-0.0185 -0.15511,-0.0399 -0.23255,-0.0599 -0.2712,-0.0729 -0.54685,-0.15219 -0.84956,-0.24908 -1.3022,-0.41685 -2.46141,-1.0337 -4.46742,-2.37814 -1.87934,-1.25955 -2.81026,-1.75801 -3.80494,-2.05104 -0.0143,-0.004 -0.0958,-0.0429 -0.10284,-0.0429 -5e-5,0 3e-5,0.009 0,0.009 -0.0454,-0.0127 -0.09,-0.0319 -0.13591,-0.0439 -2.03427,-0.52671 -4.62072,-0.36735 -6.40012,0.39481 -0.69406,0.29731 -1.08966,0.53758 -3.0055,1.82366 -2.7486,1.84513 -4.43987,2.54439 -6.99596,2.89337 -1.12003,0.15288 -3.39297,0.15243 -4.47001,-0.003 -2.60334,-0.37157 -4.21695,-1.04734 -7.07554,-2.9626 -0.94289,-0.63175 -1.92961,-1.26938 -2.19263,-1.41646 -1.44267,-0.80679 -3.46209,-1.17529 -5.47615,-0.99942 -1.79606,0.15682 -3.06321,0.63734 -4.80797,1.82315 -2.11377,1.43655 -2.62906,1.75732 -3.55328,2.21071 -2.14215,1.05079 -4.01644,1.45855 -6.69985,1.45831 -2.36312,-2.1e-4 -4.18951,-0.36401 -6.14897,-1.22473 -0.88456,-0.38854 -1.63891,-0.84062 -3.48506,-2.08618 -0.79995,-0.53969 -1.69949,-1.10446 -1.99885,-1.25522 -0.47332,-0.23839 -1.40529,-0.62321 -1.50843,-0.62321 -0.0194,0 -0.0351,2.47879 -0.0351,5.50922 v 1.35806 h 186.46148 c 0.003,-0.45598 0.009,-0.60885 0.009,-1.35289 0,-3.03329 -0.0165,-5.51491 -0.0357,-5.51491 -0.10297,0 -1.03613,0.38559 -1.51929,0.62787 -0.30535,0.15312 -1.20437,0.71773 -1.99833,1.2547 -1.70605,1.15385 -2.0895,1.38874 -3.07216,1.87896 -1.37147,0.68416 -2.97732,1.14832 -4.6638,1.34927 -1.05796,0.12605 -3.2361,0.10643 -4.21989,-0.0382 -2.61583,-0.38438 -4.22171,-1.05138 -6.96237,-2.89182 -1.91426,-1.2855 -2.42728,-1.59122 -3.16001,-1.88308 -1.00261,-0.39933 -2.17457,-0.61898 -3.38739,-0.64131 z" />
  </g>
</svg>
